HIERARCHY
ROOT Hips
{
	OFFSET -14.64140 90.27770 -84.91600
	CHANNELS 6 Xposition Yposition Zposition Zrotation Xrotation Yrotation
	JOINT Spine
	{
		OFFSET 0.00000 13.20850 -1.60436
		CHANNELS 3 Zrotation Xrotation Yrotation
		JOINT Spine1
		{
			OFFSET 0.00000 8.61716 0.00000
			CHANNELS 3 Zrotation Xrotation Yrotation
			JOINT Spine2
			{
				OFFSET 0.00000 8.61717 0.00000
				CHANNELS 3 Zrotation Xrotation Yrotation
				JOINT Spine3
				{
					OFFSET 0.00000 8.61717 0.00000
					CHANNELS 3 Zrotation Xrotation Yrotation
					JOINT Neck
					{
						OFFSET 0.00000 11.07920 1.10792
						CHANNELS 3 Zrotation Xrotation Yrotation
						JOINT Neck1
						{
							OFFSET 0.00000 7.08032 0.00000
							CHANNELS 3 Zrotation Xrotation Yrotation
							JOINT Head
							{
								OFFSET 0.00000 7.08031 0.00000
								CHANNELS 3 Zrotation Xrotation Yrotation
								End site
								{
									OFFSET 0.00000 0.00000 0.00000
								}
							}
						}
					}
					JOINT RightShoulder
					{
						OFFSET -0.01000 7.91373 5.19711
						CHANNELS 3 Zrotation Xrotation Yrotation
						JOINT RightArm
						{
							OFFSET -18.41580 0.00000 0.00000
							CHANNELS 3 Zrotation Xrotation Yrotation
							JOINT RightForeArm
							{
								OFFSET -29.11090 0.00000 0.00000
								CHANNELS 3 Zrotation Xrotation Yrotation
								JOINT RightHand
								{
									OFFSET -24.65040 0.00000 0.00000
									CHANNELS 3 Zrotation Xrotation Yrotation
									JOINT RightHandThumb1
									{
										OFFSET -5.35114 -0.85590 3.97906
										CHANNELS 3 Zrotation Xrotation Yrotation
										JOINT RightHandThumb2
										{
											OFFSET -4.52789 0.00000 0.00000
											CHANNELS 3 Zrotation Xrotation Yrotation
											JOINT RightHandThumb3
											{
												OFFSET -2.46976 0.00000 0.00000
												CHANNELS 3 Zrotation Xrotation Yrotation
												End site
												{
													OFFSET 0.00000 0.00000 0.00000
												}
											}
										}
									}
									JOINT RightHandIndex1
									{
										OFFSET -14.26970 0.00000 2.88139
										CHANNELS 3 Zrotation Xrotation Yrotation
										JOINT RightHandIndex2
										{
											OFFSET -5.48836 0.00000 0.00000
											CHANNELS 3 Zrotation Xrotation Yrotation
											JOINT RightHandIndex3
											{
												OFFSET -3.01859 0.00000 0.00000
												CHANNELS 3 Zrotation Xrotation Yrotation
												End site
												{
													OFFSET 0.00000 0.00000 0.00000
												}
											}
										}
									}
									JOINT RightHandMiddle1
									{
										OFFSET -14.26970 0.00000 -0.09147
										CHANNELS 3 Zrotation Xrotation Yrotation
										JOINT RightHandMiddle2
										{
											OFFSET -6.17441 0.00000 0.00000
											CHANNELS 3 Zrotation Xrotation Yrotation
											JOINT RightHandMiddle3
											{
												OFFSET -3.56743 0.00000 0.00000
												CHANNELS 3 Zrotation Xrotation Yrotation
												End site
												{
													OFFSET 0.00000 0.00000 0.00000
												}
											}
										}
									}
									JOINT RightHandRing1
									{
										OFFSET -12.69180 0.00000 -3.06433
										CHANNELS 3 Zrotation Xrotation Yrotation
										JOINT RightHandRing2
										{
											OFFSET -5.62556 0.00000 0.00000
											CHANNELS 3 Zrotation Xrotation Yrotation
											JOINT RightHandRing3
											{
												OFFSET -3.56744 0.00000 0.00000
												CHANNELS 3 Zrotation Xrotation Yrotation
												End site
												{
													OFFSET 0.00000 0.00000 0.00000
												}
											}
										}
									}
									JOINT RightHandPinky1
									{
										OFFSET -11.11390 0.00000 -6.03719
										CHANNELS 3 Zrotation Xrotation Yrotation
										JOINT RightHandPinky2
										{
											OFFSET -4.52789 0.00000 0.00000
											CHANNELS 3 Zrotation Xrotation Yrotation
											JOINT RightHandPinky3
											{
												OFFSET -2.46976 0.00000 0.00000
												CHANNELS 3 Zrotation Xrotation Yrotation
												End site
												{
													OFFSET 0.00000 0.00000 0.00000
												}
											}
										}
									}
								}
							}
						}
					}
					JOINT LeftShoulder
					{
						OFFSET 0.01000 7.91373 5.19711
						CHANNELS 3 Zrotation Xrotation Yrotation
						JOINT LeftArm
						{
							OFFSET 18.41580 0.00000 0.00000
							CHANNELS 3 Zrotation Xrotation Yrotation
							JOINT LeftForeArm
							{
								OFFSET 29.11090 0.00000 0.00000
								CHANNELS 3 Zrotation Xrotation Yrotation
								JOINT LeftHand
								{
									OFFSET 24.65040 0.00000 0.00000
									CHANNELS 3 Zrotation Xrotation Yrotation
									JOINT LeftHandThumb1
									{
										OFFSET 5.35114 -0.85590 3.97906
										CHANNELS 3 Zrotation Xrotation Yrotation
										JOINT LeftHandThumb2
										{
											OFFSET 4.52789 0.00000 0.00000
											CHANNELS 3 Zrotation Xrotation Yrotation
											JOINT LeftHandThumb3
											{
												OFFSET 2.46977 0.00000 0.00000
												CHANNELS 3 Zrotation Xrotation Yrotation
												End site
												{
													OFFSET 0.00000 0.00000 0.00000
												}
											}
										}
									}
									JOINT LeftHandIndex1
									{
										OFFSET 14.26970 0.00000 2.88139
										CHANNELS 3 Zrotation Xrotation Yrotation
										JOINT LeftHandIndex2
										{
											OFFSET 5.48836 0.00000 0.00000
											CHANNELS 3 Zrotation Xrotation Yrotation
											JOINT LeftHandIndex3
											{
												OFFSET 3.01859 0.00000 0.00000
												CHANNELS 3 Zrotation Xrotation Yrotation
												End site
												{
													OFFSET 0.00000 0.00000 0.00000
												}
											}
										}
									}
									JOINT LeftHandMiddle1
									{
										OFFSET 14.26970 0.00000 -0.09147
										CHANNELS 3 Zrotation Xrotation Yrotation
										JOINT LeftHandMiddle2
										{
											OFFSET 6.17440 0.00000 0.00000
											CHANNELS 3 Zrotation Xrotation Yrotation
											JOINT LeftHandMiddle3
											{
												OFFSET 3.56744 0.00000 0.00000
												CHANNELS 3 Zrotation Xrotation Yrotation
												End site
												{
													OFFSET 0.00000 0.00000 0.00000
												}
											}
										}
									}
									JOINT LeftHandRing1
									{
										OFFSET 12.69180 0.00000 -3.06433
										CHANNELS 3 Zrotation Xrotation Yrotation
										JOINT LeftHandRing2
										{
											OFFSET 5.62556 0.00000 0.00000
											CHANNELS 3 Zrotation Xrotation Yrotation
											JOINT LeftHandRing3
											{
												OFFSET 3.56744 0.00000 0.00000
												CHANNELS 3 Zrotation Xrotation Yrotation
												End site
												{
													OFFSET 0.00000 0.00000 0.00000
												}
											}
										}
									}
									JOINT LeftHandPinky1
									{
										OFFSET 11.11390 0.00000 -6.03719
										CHANNELS 3 Zrotation Xrotation Yrotation
										JOINT LeftHandPinky2
										{
											OFFSET 4.52789 0.00000 0.00000
											CHANNELS 3 Zrotation Xrotation Yrotation
											JOINT LeftHandPinky3
											{
												OFFSET 2.46976 0.00000 0.00000
												CHANNELS 3 Zrotation Xrotation Yrotation
												End site
												{
													OFFSET 0.00000 0.00000 0.00000
												}
											}
										}
									}
								}
							}
						}
					}
					JOINT pCube4
					{
						OFFSET 0.00000 10.91090 1.10792
						CHANNELS 3 Zrotation Xrotation Yrotation
						End site
						{
							OFFSET 0.00000 0.00000 0.00000
						}
					}
				}
			}
		}
	}
	JOINT RightUpLeg
	{
		OFFSET -9.98441 0.00000 0.00000
		CHANNELS 3 Zrotation Xrotation Yrotation
		JOINT RightLeg
		{
			OFFSET 0.00000 -42.11790 0.00000
			CHANNELS 3 Zrotation Xrotation Yrotation
			JOINT RightFoot
			{
				OFFSET 0.00000 -45.00020 -0.00001
				CHANNELS 3 Zrotation Xrotation Yrotation
				JOINT RightForeFoot
				{
					OFFSET 0.00000 -3.74820 0.00000
					CHANNELS 3 Zrotation Xrotation Yrotation
					JOINT RightToeBase
					{
						OFFSET 0.00000 0.06325 14.43120
						CHANNELS 3 Zrotation Xrotation Yrotation
						End site
						{
							OFFSET 0.00000 0.00000 0.00000
						}
					}
				}
			}
		}
	}
	JOINT LeftUpLeg
	{
		OFFSET 9.98441 0.00000 0.00000
		CHANNELS 3 Zrotation Xrotation Yrotation
		JOINT LeftLeg
		{
			OFFSET 0.00000 -42.11800 0.00000
			CHANNELS 3 Zrotation Xrotation Yrotation
			JOINT LeftFoot
			{
				OFFSET 0.00000 -45.00070 0.00000
				CHANNELS 3 Zrotation Xrotation Yrotation
				JOINT LeftForeFoot
				{
					OFFSET 0.00000 -3.74824 0.00000
					CHANNELS 3 Zrotation Xrotation Yrotation
					JOINT LeftToeBase
					{
						OFFSET 0.00000 0.06325 14.43110
						CHANNELS 3 Zrotation Xrotation Yrotation
						End site
						{
							OFFSET 0.00000 0.00000 0.00000
						}
					}
				}
			}
		}
	}
}
MOTION
Frames: 4
Frame Time: 0.050000
0.01068550441744822 0.020953050502920508 -0.002305796193693253 -0.007722714471849102 -0.006866693613974226 -0.010442450263784132 -2.8155433192080963 0.4273563733974617 -0.8107531967553424 -0.9864314027434797 3.4939571549227004 0.3439069564526496 -0.9376147598460486 -2.0384869807230888 -2.5322320722115017 -0.8723486828031126 0.3092504214289455 -1.0195958236666693 -2.248439744201764 12.302652291181843 5.951668393022892 -0.09635867500810373 0.0894817372244914 13.446154392734357 -1.8847763544246865 -14.583445112377964 1.1730129900649289 -2.730225286925033 1.4380370131805953 -13.52662634888253 69.88181829276067 28.833692447488755 0.25781822806512633 8.157644742991636 -0.9696093064799788 84.38509899467985 17.921550138217736 -0.47191491590069895 -3.943522155420839 4.554639389252631 -0.09115877211959461 -1.5778832908356453 0.04276611160532096 0.028315396684726563 -56.20453711829282 -0.002003220829239269 -0.017358428401677537 -56.18766138418695 -38.81352328093337 -0.009121216118148605 0.037234626562257477 -0.04049781850542124 0.0015727720075257984 -0.020286594578345814 -0.031281139456754224 0.03253914337801565 0.016608800955018817 -36.69686054240469 -0.02272952035453952 -0.04097700092612502 0.035445377877915574 -0.048551428465087046 -0.00946933849557752 -0.02840970404330693 -0.03721962899986648 -0.038441386733425696 -19.73293603390393 -0.0040577834699497516 -0.014827000790679303 0.012219295878088586 -0.00916512775847738 -0.029876910310656264 0.015060027374413592 0.0052384954135461905 -0.007077695648220881 24.093261186672702 0.0013308010722408107 -0.027453143861933687 28.875106102742016 0.04061305831009463 0.0317387428490768 28.82454484012827 0.04668760240166543 -0.01553147483585263 9.83583515668617 2.0592260732868657 12.322368713754221 -69.10644079925065 15.79811182693369 -23.019343047757296 -20.33806683323299 -12.321480551044928 -77.74744721831667 -5.99385380390075 -2.9188536362639237 0.18501117118549365 -0.45861452336065317 0.08830987259882286 -8.126252142050935 0.026565544214703526 -0.03184958518351371 44.54196138809805 -0.038572445943898505 -0.04132514901790102 44.5266659281241 12.422723453055628 0.010910617686094536 0.039240790843152525 0.04857185941108136 -0.04492718385461986 -0.017039398750337505 -0.012345168510448236 0.00572903479090867 0.017458051050945677 11.111816773517567 -0.03939067965635652 0.004341041026334096 -0.047321479026710266 -0.030006241822068704 -0.01307626482808998 -0.045804459117697593 -0.04366739356111112 0.017325881192556694 4.762670680727009 0.023634854948438595 0.022718048863876957 0.01566862124448333 0.03377084165601735 -0.023094367806449117 -0.0024036282229940318 0.005799566972184808 -0.012186977348292079 -5.611083765675503 -0.00833554117813775 0.005592932701334939 -6.727731477456609 -0.007337707862450158 0.036124161328268775 -6.730371861348233 0.049395847488506214 -0.02797284989952116 -0.007882111595881293 0.028408355082933014 -0.01833280093397477 8.017476310310128 3.5246883564063753 -19.2520872224257 0.02781633873903043 10.400681531501643 0.005033050870041812 -5.619598782294554 -15.629856081612335 3.2364484049186824 -0.0034451905630334865 0.038098514439878016 -0.01935935792194055 0.0018787414132382897 4.725206042954039 -0.027991415926990223 12.458714616691518 -8.253615155635291 6.884135713787498 0.016991714446825557 46.37426651404241 -0.007279459857144049 -4.334443614517313 -14.703568663470156 -3.803676020868598 -0.027121089781165193 -0.029820966448740195 0.0021578160422230136 -0.02713005588542578 -10.744615786560438 0.0026165272236454333 
0.010827393235656117 -0.021615854445463108 0.046051069982787816 -0.01653390197601816 0.041678571390765806 0.008965712776030872 -2.6908871100568366 0.527014702342907 -0.7503001990530055 -0.9651745116548993 3.486541683014334 0.325712172872519 -0.9283369099935918 -1.9945825745647057 -2.6983680195281927 -0.8118620860751635 0.29093997522056547 -1.0082960135064938 -2.2599467306194043 12.332881878277231 5.881768016370471 -0.12937369895824097 0.14277679055807957 13.33111317503137 -1.8961112380374463 -14.61247554746698 1.0911482271168154 -2.7723662199842756 1.4117061738788776 -13.32109681945371 69.8289828435708 28.3829903845902 0.7326910801832731 8.99650584502157 -0.5220664252286205 83.36324278001649 18.02885713405499 -0.4641161570554725 -4.067826382506223 4.5633273512273345 -0.15816062701852776 -1.547372249185915 -0.009714154503461652 -0.048651022528157256 -56.25967758246829 -0.012738163433768511 -0.005836039185303526 -56.23275519813431 -38.80553669074684 -0.028959326651540284 -0.030569447232107017 -0.03527831489552721 -0.020663580499373963 0.003634405550063496 0.014994705740843002 -0.03723804413632417 0.011520891286042783 -36.66399235255113 0.003265740569404086 0.008555317841713424 0.019258780329663956 -0.025293019640195036 -0.037098772680883865 -0.03714293002452304 -0.021743701482300155 0.01651400365872445 -19.738134980171736 0.010826557245313463 -0.005162787313637188 0.000608878967930287 -0.018174394202666755 -0.03434970607929381 -0.01217746394001816 0.008365096945410568 -0.039449798143205136 24.054320062888145 0.010107102693346215 -0.040514105858163924 28.878719225383627 0.04912110965597605 0.02035488343830722 28.831025302234956 -0.001327442514415946 -0.03121957996484561 9.966056565814169 2.128468046449342 12.191661362659971 -68.27109711400026 15.547498203332594 -24.671220210163447 -17.25647090367933 -13.197674160797632 -76.930577003747 -5.746877570752209 -2.8338478241428757 0.5577574133602944 -0.443198582207926 0.050758502821453465 -8.143363505102586 -0.0286028170992904 0.010235813691844498 44.52315122941575 0.03024658292592712 0.0045250999818151295 44.58733323973981 12.486539765849722 0.040604766079967346 0.024064339169549958 -0.0008366110278748323 -0.007896498557286526 0.04981443771085761 0.030123208796346456 -0.03159000282185896 -0.0017703246077959058 11.096438410562362 -0.010108355814199494 0.02256167182656203 0.016306537201546713 0.033685018581304155 0.016692471295397353 -0.011209037283096242 -0.04240550837329808 0.040739630118554415 4.784627114688581 -0.021250345454717448 0.03724025654121634 0.041580345103637124 0.004143299177421455 0.0008829791781059421 0.02144446512406495 0.0034128352467392396 0.02138397148830004 -5.630414521593123 -0.011568085263293946 0.00962627641999137 -6.734083434657957 0.015788792024425943 0.030887372431743786 -6.766002630618965 0.02067074457990406 -0.0035140806156192515 0.04106151579025755 0.0022636122043619856 0.03484268012926213 8.047471512326092 3.493636309618859 -19.190156074474015 -0.04228575029872143 10.396841912683461 0.0010230632461790783 -5.642219321245128 -15.654559286017225 3.19173381053845 0.047263571445004655 -0.013496450304041157 0.008269708297238065 -0.027545152032952387 4.68219572911423 0.027064959807563193 12.448106432915845 -8.214704209863715 6.871027115840169 0.009997597815644117 46.42223356418586 0.025528285699384166 -4.320682276693186 -14.751284011740296 -3.8422758904466012 -0.0050316268045336255 -0.01905107480899409 -0.016894155328897282 0.02750234075860693 -10.729675594269807 0.01885067654225174 
0.023304629042048695 -0.005065303524380257 0.015826419397263324 -0.024124248640361064 -0.043095067884392296 0.04618325064182717 -2.707544152915782 0.6369713539857645 -0.7916116089233719 -0.9802475687572098 3.522472281475286 0.3155652516518753 -0.8583635404826081 -1.995887585145248 -2.9247860697994383 -0.7484290274441451 0.3130244978704867 -1.0563316497285966 -2.282113991243276 12.244255951137209 5.7546085296446154 -0.20433921414797632 0.0469150561975035 12.992423410928225 -1.8753729719691599 -14.661461569028827 1.113970049012144 -2.8853258071705805 1.4250515492509754 -13.22492207508578 69.55940876676726 28.024717506900863 1.4282878531430445 10.733701730373733 -0.19341212609377018 83.08811771415085 18.547990839534847 -0.3945229993832409 -4.325421402499479 4.553602771573661 -0.17135410137139026 -1.5778151496744741 0.006201110239768711 0.019170425142845712 -56.257013906436185 -0.017863382385446696 0.013654493076622271 -56.230893888864486 -38.7381502841072 0.036343809350211 -0.035127555018784784 -0.01359570957596156 -0.03849277653940576 0.04545290071326743 -0.002570783331157649 -0.01847099598730657 -0.025569713253694306 -36.69992195157527 0.029641303958096055 -0.017612513294462923 -0.029155121506578712 0.023750637987266895 -0.008036317171689636 0.03090528978646629 -0.048763940022275146 -0.011148685563060671 -19.75750981717169 -0.020539206371799196 -0.005153495001322413 -0.02417674071377802 -0.02326062155013909 0.042117622565873224 -0.02112315525694063 0.04625111947734292 0.014809063647744732 24.084643535691594 0.033018655864164664 -0.02888189334995313 28.87358846082471 -0.0041555237433327195 0.0064020146391474695 28.852010193215797 0.0402584764474206 0.01031772314057885 10.100429622794644 2.165146377549115 11.93668898625699 -67.30136338629626 15.33655706511834 -26.25911077161133 -15.59533533035152 -13.727949613907532 -75.79654475307795 -6.2698367716333125 -2.8871475409769163 1.1089126005139023 -0.49557051688243986 0.03330522196044747 -8.123506106862857 0.004079860111649229 -0.044422813624018356 44.56962328093792 -0.014478337922197016 0.020764158332550447 44.58495879374103 12.470547177728564 0.03903471873317814 -0.024188591212619424 0.04153115143798871 -0.028436443335699405 0.01658909447182866 -0.014013316166623 0.01439342699546767 -0.0032929110864024775 11.084962404866326 0.019221012869854684 -0.04561730534161954 0.020704235796978606 0.040833330138796746 -0.04473766022438057 0.046325565889720775 0.007640446529282948 0.019732176049251517 4.738032885530974 0.003651941987433614 -0.011202042359582946 0.008441524543440833 0.0024708528844129005 -0.020182884284128205 0.04847953026572525 -0.0367329756927249 0.0030850875522148704 -5.629393920908613 0.00854573862152482 -0.03632678153531239 -6.7579233149166305 0.011555229369896237 -0.03836091500855297 -6.673961795886249 -0.0276016733725745 0.035032155312533814 -0.005894645475225004 0.004772457909453717 -0.002932116697788564 8.07019736557442 3.491789195701561 -19.21529442098299 -0.028854624457890127 10.427607512837 -0.026822024957762123 -5.659716419607963 -15.67447830982797 3.218545293589104 -0.02441517426800115 0.019975410245108467 0.024912501902327917 0.01205585238734714 4.726619969369181 0.04582899572310203 12.446613763896414 -8.193179001898786 6.864348213447605 0.007180129777873646 46.353182157981884 0.04590699930644111 -4.315792832261627 -14.756089472397058 -3.836077573187976 -0.042229289040437365 -0.009388716884748308 0.042848051539470466 0.03978158718899905 -10.770589833554624 -0.03386343222174887 
-0.049774506728972844 0.03998217198315472 0.011535088844371605 -0.012636309065419788 -0.037161947738173426 0.02373652005985243 -2.7129336890016518 0.7136272793799852 -0.8113244598973981 -0.9745122500739964 3.532497433818421 0.3289307597071936 -0.8950299034715863 -1.968613992841644 -2.9709336023726896 -0.6457192387517581 0.28913225449380553 -1.0390469349088176 -2.2847179605961814 12.232895414712875 5.588234806335654 -0.14686271427120542 -0.019751631017296958 12.621526038814062 -1.9031137926953208 -14.780351852524893 1.0609033064179392 -2.9591942849994846 1.51253975089218 -13.107574676936826 69.33991189309052 27.449545304255267 1.9997382991299326 11.84124571799127 0.11092885037740002 81.80175670652596 18.89259231809009 -0.37158816300450603 -4.525358468283966 4.5442816611585535 -0.1255505686371142 -1.6117753482134614 -0.02376140619035657 -0.025682689229727093 -56.20676691306642 -0.03137696613890266 -0.01921187327182654 -56.25060212719153 -38.75666499576848 0.041609788772181903 -0.024777270477114137 -0.019433636582237086 -0.041801123054896624 0.040284768373892915 -0.019258349557328573 0.011408619305720834 -0.044821588833189506 -36.697872334664375 0.03759305948708799 -0.015112630219186235 0.033817410424047234 -0.047570629453317095 -0.010981000178412696 -0.005497856840816748 -0.028892116010660558 0.02786561885773369 -19.728733109956245 0.01144863045830375 -0.014058524079109763 0.020969526487238342 -0.0022671748587021457 -0.0021869304325361416 0.006197998841377478 0.009368780327909238 0.04951619458841377 24.008978354793395 -0.014192543143445674 0.02596807003711851 28.91022180300259 0.015026889372993511 -0.005123629246287044 28.83977145791598 0.0406758950028776 -0.004961926703105126 10.209637491845037 2.1667808458847695 11.729950162568798 -66.32594355155543 15.333728258814608 -27.368798213584885 -13.915078471425495 -14.18983478468481 -73.82661578133401 -6.804014827591125 -3.0194225689086482 1.8735660835922598 -0.4591131224139562 0.1122584635024101 -8.109067386955429 0.0024730765542253746 -0.013994712216942528 44.51975098149182 0.0032957901429734866 0.04537546014746517 44.53584361586936 12.420001579125879 0.0304090803261922 0.024686095228866514 0.04282263577732133 -0.0010182410081369438 -0.031187475925924423 0.0003641137574423908 -0.0007789488242377823 -0.004274176511093127 11.057248226405282 0.009568233837229954 -0.004890214856351631 -0.0013631768847658674 -0.01950769731020682 0.036581708826372586 0.015948076861477083 0.0325499003201882 -0.041065721938898146 4.779072391814913 0.016001135968080886 -0.031330103764676265 -0.026040823572626635 -0.015327565459557296 0.022896578127657677 -0.03812094226641526 0.010054413270963262 0.022008636362840464 -5.5535618669747695 -0.010838592919358707 -0.019545979205767984 -6.750656252814986 0.01758252165504982 -0.026750433216411223 -6.706119224413779 0.021706245471604626 -0.004641566152273364 0.03553408131276165 -0.015690521485817864 -0.0490518783131597 8.059660323064932 3.5134961327879908 -19.210690675285015 -0.03574920453516395 10.393854361923365 0.018028337123825067 -5.60646825934775 -15.703472615195615 3.1989322024681273 0.010105736161131454 -0.036219686149685626 -0.027832002453685997 -0.025854804338320915 4.736622596581205 0.029053539597531947 12.481124442094014 -8.259739550446511 6.891088885877743 0.030482921651338292 46.35631938752431 -0.008510721309621832 -4.363272141212413 -14.748551183163608 -3.8202292543895595 0.011373280459088326 -0.029486894783560622 -0.02040024516781944 -0.014684001447523846 -10.722859247392398 0.019235395356440862 
